# xmcd
#
# Track frame offsets:
#	150
#	13396
#	26205
#	41475
#	58661
#	75070
#	88218
#	101282
#	114278
#	129116
#	142741
#	158091
#	174728
#	186773
#	203026
#	212564
#
# Disc length: 3073 seconds
#
# Revision: 1
# Processed by: cddbd v1.5.2PL0 Copyright (c) Steve Scherf et al.
# Submitted via: audiograbber 1.83.01
#
DISCID=c60bff10
DTITLE=Clive Bruce - Golden Country Hits 2
DYEAR=1999
DGENRE=Country
TTITLE0=You're my best friend
TTITLE1=Blue eyes vrying in the rain
TTITLE2=Tiny bubbles
TTITLE3=Red river Rosie
TTITLE4=Forever and ever amen
TTITLE5=Wings of a dove
TTITLE6=500 Miles away from home
TTITLE7=Raindrops keep falling on my head
TTITLE8=Lady Moonlight
TTITLE9=Tequila Sheila
TTITLE10=Guilty
TTITLE11=Drive safely darling
TTITLE12=Oh! Lonesome me
TTITLE13=The gambler
TTITLE14=From a Jack to a King
TTITLE15=I need you
EXTD=
EXTT0=
EXTT1=
EXTT2=
EXTT3=
EXTT4=
EXTT5=
EXTT6=
EXTT7=
EXTT8=
EXTT9=
EXTT10=
EXTT11=
EXTT12=
EXTT13=
EXTT14=
EXTT15=
PLAYORDER=
